<?xml version="1.0" encoding="UTF-8"?>
<!DOCTYPE svg PUBLIC "-//W3C//DTD SVG 1.1//EN" "http://www.w3.org/Graphics/SVG/1.1/DTD/svg11.dtd">
<!-- Creator: CorelDRAW X8 -->
<svg xmlns="http://www.w3.org/2000/svg" xml:space="preserve" width="30.3871mm" height="9.3723mm" version="1.1" style="shape-rendering:geometricPrecision; text-rendering:geometricPrecision; image-rendering:optimizeQuality; fill-rule:evenodd; clip-rule:evenodd"
viewBox="0 0 253 78"
 xmlns:xlink="http://www.w3.org/1999/xlink">
 <defs>
  <style type="text/css">
   <![CDATA[
    .fil0 {fill:white}
    .fil1 {fill:white;fill-rule:nonzero}
   ]]>
  </style>
 </defs>
 <g id="Layer_x0020_1">
  <metadata id="CorelCorpID_0Corel-Layer"/>
  <g id="_2581732780608">
   <path class="fil0" d="M25 0c5,0 9,1 13,2 3,2 6,4 8,8 2,3 3,6 3,10 0,4 -1,8 -3,11 -2,3 -5,6 -8,7 -4,2 -8,3 -13,3l-8 0 0 13 -17 0 0 -54 25 0 0 0zm-1 27c2,0 4,-1 5,-2 1,-1 2,-3 2,-5 0,-2 -1,-3 -2,-4 -1,-1 -3,-2 -5,-2l-7 0 0 13 7 0 0 0 0 0zm114 -27l-11 38c-3,0 -6,1 -6,4 0,2 1,3 2,3 1,0 1,0 2,0l-1 3c-1,0 -1,-1 -2,-1l-1 0 0 0c-1,1 -2,1 -2,3 -1,0 -1,2 -2,2 0,0 0,1 0,1 -1,0 -1,0 -1,0 -1,1 -1,1 -2,1l0 0c0,0 0,-1 0,-2 0,0 0,0 0,0 0,0 0,-1 0,-1 0,-2 -1,-4 -3,-4 -2,0 -3,1 -5,2 -1,1 -2,1 -3,2 3,-4 5,-8 7,-12 1,-2 2,-3 3,-5 1,-1 1,-2 1,-4 0,0 0,-1 -1,-2l9 -28 16 0 0 0 0 0zm-40 37l-3 -12 -7 22c-2,2 -3,4 -4,5 1,-4 2,-9 4,-13 1,-2 2,-5 3,-7 0,-1 0,-3 0,-4 0,-2 0,-3 -2,-4 0,0 -1,0 -1,0 -2,0 -2,0 -3,1 -1,1 -3,3 -4,4 -6,7 -10,15 -14,23l-17 -52 18 0 10 30 9 -30 16 0 8 27 0 0c-1,0 -1,0 -2,1 -1,0 -3,2 -3,2 -3,2 -5,5 -8,7l0 0zm-22 17l-3 0c2,-5 5,-9 8,-14 0,0 0,1 0,1 -2,4 -3,9 -5,13zm108 -28c2,0 4,1 5,2 -1,0 -1,1 -2,1 -3,1 -7,3 -9,7l0 0 0 0c-1,1 -1,2 -1,2 0,2 2,3 3,3 1,0 3,-1 3,-2 0,-1 3,-3 5,-3 1,-1 3,-2 5,-2 1,1 1,3 1,5 0,5 -2,8 -6,11 -3,2 -6,3 -11,4 0,-1 -2,-2 -3,-2l-1 0 0 0c0,-2 -1,-3 -3,-4 0,0 -1,0 -2,0 -1,0 -2,0 -3,1 0,0 -1,-1 -1,-1 0,-1 -1,-1 -2,-1 -1,0 -2,0 -2,1l0 0 0 0c-1,1 -2,2 -2,3 -1,1 -1,1 -1,2 0,0 -1,0 -2,0 0,1 0,1 -1,1l0 0c0,0 0,-1 0,-2 0,0 0,0 0,0 0,0 0,-1 0,-1 0,-2 -1,-4 -3,-4 -2,0 -4,1 -5,2 -1,1 -2,2 -4,3l0 -7c2,0 5,0 7,0 2,-1 5,-2 5,-5 0,0 0,-1 0,-1 -1,-1 -2,-2 -3,-2 -1,0 -2,0 -3,2 -1,0 -2,0 -3,0 -1,0 -1,0 -1,0l0 0 0 -1c0,-1 -1,-1 -2,-2l0 -36 28 0c7,0 13,1 16,4 4,2 5,6 5,10 0,3 0,5 -1,7 -2,2 -4,3 -6,5l0 0 0 0zm-24 -13l0 8 8 0c4,0 6,-2 6,-4 0,-3 -2,-4 -6,-4l-8 0zm10 28c4,0 6,-1 6,-4 0,-3 -2,-4 -6,-4l-10 0 0 8 10 0zm55 -41c5,0 9,1 12,2 4,2 7,4 9,8 2,3 3,6 3,10 0,4 -1,8 -3,11 -2,3 -5,6 -9,7 -3,2 -7,3 -12,3l-7 0 0 11c-2,1 -2,1 -4,1 1,0 1,-1 1,-1 1,-1 2,-2 2,-3l0 0 0 -1c0,-1 -1,-2 -3,-2 -2,0 -3,1 -3,3 -1,0 -1,0 -2,1 0,0 0,0 0,0 0,0 -1,-1 -2,-1 -2,0 -4,-1 -6,-1 1,-3 2,-8 2,-11 0,-4 -1,-7 -3,-8l0 -29 25 0 0 0 0 0zm-1 27c2,0 4,-1 5,-2 2,-1 2,-3 2,-5 0,-2 0,-3 -2,-4 -1,-1 -3,-2 -5,-2l-6 0 0 13 6 0 0 0 0 0z"/>
   <g id="_2715521640400">
    <g>
     <g>
      <path class="fil1" d="M62 73c0,0 0,0 -1,0 0,0 0,0 0,-1 0,0 1,-2 2,-5 5,-14 12,-26 20,-37 2,-2 3,-3 3,-3 1,-1 2,-1 2,-1 0,0 0,0 1,0 0,0 0,1 0,2 0,0 0,2 0,3 -1,1 -2,4 -3,7 -2,5 -4,12 -6,19 -1,3 -2,4 -2,4 1,0 2,-1 4,-4 3,-3 6,-7 11,-12 5,-4 9,-9 14,-13 2,-2 3,-2 3,-3 1,0 1,0 1,0 0,0 1,0 1,0 0,1 0,1 0,1 0,1 0,2 0,3 -1,1 -2,2 -3,4 -5,8 -8,14 -11,20 -3,5 -4,9 -5,10 -1,3 -2,5 -2,5 -1,0 -1,0 -1,0 0,0 0,0 0,-1 0,0 0,0 0,0 0,0 0,-1 0,-1 1,-3 2,-6 4,-9 2,-5 4,-9 6,-13 2,-3 4,-7 7,-12 1,-2 2,-3 2,-3l0 0c0,0 0,0 0,0 -4,3 -7,7 -12,11 -5,5 -9,9 -11,12l-3 3c-2,3 -4,5 -5,6 0,0 -1,0 -1,0 -1,0 -1,-1 -1,-2 0,0 0,-2 1,-5 2,-7 4,-12 6,-16 2,-7 4,-12 4,-13 -8,9 -16,22 -22,37 -2,4 -2,6 -2,6 0,0 0,0 -1,1 0,0 0,0 0,0z"/>
      <path id="1" class="fil1" d="M112 59c0,0 -1,0 -1,0 -1,-1 -2,-2 -2,-3 0,0 0,0 0,0 0,-1 0,-1 0,-1 1,0 1,0 1,0 -1,0 -1,0 -2,1 -2,2 -4,2 -5,2 0,0 0,0 0,0 -1,0 -1,0 -1,-1 0,-1 0,-2 2,-4 1,-1 2,-2 3,-2 2,-1 3,-1 4,-1 1,0 1,0 1,1 0,0 0,0 0,0 0,0 0,0 0,1 0,0 0,0 0,0 0,1 0,1 0,2 0,1 0,2 0,2 0,0 0,0 0,1 0,0 0,0 0,0 0,0 0,0 0,0 1,0 2,-1 5,-2 1,-1 2,-1 2,-1 1,0 1,0 1,1 0,0 0,1 -1,1 -3,2 -5,3 -7,3zm-8 -3c1,0 2,0 3,-2 2,-1 3,-2 3,-2 -1,0 -1,0 -3,1 -2,2 -3,3 -3,3 0,0 0,0 0,0z"/>
      <path id="2" class="fil1" d="M129 57c-2,0 -3,-1 -3,-3 0,-1 0,-1 0,-1 0,0 -1,0 -3,1 0,1 -1,1 -1,2 -1,1 -2,1 -3,1 0,0 0,0 0,0 -1,0 -1,-1 -1,-1 0,0 1,-1 1,-3 1,-1 2,-2 2,-3 0,0 0,0 1,0 0,0 1,0 1,1 0,0 0,0 -1,1 0,0 0,1 0,1 0,0 0,0 0,0 2,-2 3,-3 4,-3 0,0 1,0 1,1 0,0 0,0 1,0 0,1 0,1 0,2 0,1 0,2 0,2 0,0 0,0 1,0 0,0 1,0 3,0 1,-1 1,-1 2,-1 0,0 1,0 1,1 0,0 0,0 -1,1 0,0 -1,0 -3,1 -1,0 -2,0 -2,0z"/>
      <path id="3" class="fil1" d="M135 59c-2,0 -2,-1 -2,-2 0,-2 1,-5 3,-10l2 -4c0,0 0,0 -1,0 0,0 -1,0 -4,0 -3,-1 -5,-1 -6,-1 -1,0 -2,0 -2,0 -1,1 -1,1 -1,1 -1,0 -1,-1 -1,-1 0,-1 1,-2 4,-2 2,0 5,0 9,1l3 0 1 -1c0,0 0,-1 1,-1 0,0 0,-1 0,-1 0,0 0,0 1,0 0,0 0,0 1,1l0 0c0,0 -1,1 -1,1l0 1c1,0 2,0 3,0 3,0 4,-1 5,-1 0,0 0,0 0,-1 0,0 1,0 1,0 1,0 1,0 1,1 0,0 0,0 0,0 0,1 -1,2 -4,3 -1,0 -3,0 -6,0l-2 0c-3,8 -5,12 -5,14 0,0 0,0 0,0 2,0 4,-1 7,-2 1,-1 2,-1 2,-1 0,0 0,0 0,1 1,0 1,0 1,0 0,1 -2,2 -4,3 -3,1 -5,1 -6,1z"/>
      <path id="4" class="fil1" d="M152 59c-1,0 -1,0 -1,0 -1,-1 -2,-2 -2,-3 0,0 0,0 0,0 0,-1 0,-1 0,-1 0,0 0,0 0,0 0,0 0,0 -1,1 -2,2 -4,2 -5,2 0,0 0,0 0,0 -1,0 -2,0 -2,-1 0,-1 1,-2 3,-4 1,-1 2,-2 3,-2 2,-1 3,-1 4,-1 1,0 1,0 1,1 0,0 0,0 0,0 0,0 0,0 0,1 0,0 0,0 0,0 0,1 0,1 0,2 0,1 -1,2 -1,2 0,0 0,0 1,1 0,0 0,0 0,0 0,0 0,0 0,0 1,0 2,-1 5,-2 1,-1 2,-1 2,-1 1,0 1,0 1,1 0,0 0,1 -1,1 -3,2 -6,3 -7,3zm-8 -3c0,0 1,0 3,-2 2,-1 3,-2 3,-2 -1,0 -2,0 -3,1 -2,2 -3,3 -3,3 0,0 0,0 0,0z"/>
      <path id="5" class="fil1" d="M156 64c0,0 0,0 -1,-1 0,0 0,0 0,0 0,-1 2,-5 5,-11 1,-2 1,-3 1,-3 1,0 1,0 1,0 0,0 1,0 1,0 0,0 0,1 0,1 0,0 0,0 0,1 0,0 0,0 -1,0 0,1 0,1 0,2l-1 2 1 -1c3,-3 5,-4 7,-4 0,0 0,0 0,0 1,1 2,1 2,2l0 0c0,1 0,1 -1,2l4 0c1,0 2,1 2,1 0,1 -1,1 -2,1 -4,1 -6,1 -6,1 0,0 0,0 0,0 -1,1 -2,1 -3,1 0,0 -1,0 -1,-1 0,0 0,0 0,0 0,-1 1,-1 2,-2 1,0 2,-1 3,-2 0,0 0,-1 0,-1 0,0 0,0 -1,0 0,0 0,0 -1,0 -1,1 -3,2 -4,4 -2,1 -4,3 -5,6 0,0 -1,1 -1,1 0,0 -1,1 -1,1 0,0 0,0 0,0z"/>
     </g>
    </g>
    <g>
     <g>
      <path class="fil1" d="M172 78c0,0 -1,0 -1,0 -3,-1 -4,-2 -5,-4 0,-1 0,-1 0,-2 0,0 0,-1 0,-1 1,-1 1,-2 1,-2 1,-2 2,-3 3,-4 1,-2 2,-3 3,-4 5,-4 11,-7 19,-9 2,-1 3,-1 3,-1 0,0 1,-2 2,-5 1,-4 2,-7 2,-9 0,-1 0,-2 0,-2 0,-2 -2,-3 -4,-4l-1 0c-2,0 -4,1 -7,3 -3,1 -5,3 -6,4 0,1 0,1 -1,1 0,0 -1,0 -1,-1 0,0 1,-1 1,-1 1,-2 4,-4 8,-6 3,-1 5,-2 7,-2 4,0 6,3 6,8 0,2 -1,7 -3,13 1,0 1,0 2,0 3,0 5,0 7,1 3,1 4,1 4,1 1,1 1,1 1,1 0,1 -1,1 -1,1 -1,0 -2,0 -4,-1 -2,0 -4,-1 -6,-1 -1,0 -3,1 -4,1 -5,11 -11,19 -17,23 -3,1 -6,2 -8,2zm0 -2c1,0 2,0 3,-1 6,-1 12,-7 17,-17 1,-3 2,-4 2,-4 0,0 -1,0 -3,0 0,1 -1,1 -2,1 -1,0 -1,0 -2,1 -7,2 -13,6 -16,10 -2,2 -3,4 -3,6 0,2 1,3 3,4 0,0 1,0 1,0z"/>
      <path id="1" class="fil1" d="M210 59c-1,0 -1,0 -2,-1 0,0 0,0 0,-1 0,0 0,-1 1,-3 1,-2 2,-3 2,-3 1,0 1,-1 1,-1 0,0 0,0 1,1 0,0 0,0 0,0 0,1 0,1 -1,2 0,0 -1,1 -1,2 -1,1 -1,2 -1,2l3 -1c3,-1 6,-2 7,-2 0,0 0,0 0,1 1,0 1,0 1,0 0,1 -1,1 -1,1 0,0 -1,1 -3,1 -3,1 -4,1 -5,1 -1,1 -2,1 -2,1zm4 -9c-1,0 -1,-1 -1,-1 0,-1 0,-1 1,-1 1,0 1,0 1,1 0,0 0,1 -1,1z"/>
      <path id="2" class="fil1" d="M226 60c-2,0 -2,-1 -2,-3l0 -1c-2,2 -3,2 -4,2 0,0 -1,0 -1,0 0,0 -1,-1 -1,-1 0,-1 1,-2 1,-3 1,-1 2,-2 3,-2 0,0 0,0 0,1 0,0 0,0 0,1 -1,1 -1,1 -1,2l0 0c0,0 1,-1 2,-2 1,-1 2,-2 2,-2 1,0 1,0 1,1 0,0 1,0 1,0 0,1 -1,1 -1,2 0,1 0,1 0,2 0,0 0,1 0,1 1,0 1,-1 3,-2 0,-1 1,-1 1,-2 0,0 0,-1 0,-1 1,-2 1,-2 2,-2 0,0 1,0 1,0 0,0 0,0 0,0 0,0 0,1 0,1 0,0 0,1 -1,3 0,0 0,0 0,0 1,0 2,0 3,-1 1,0 1,0 2,0 0,0 0,0 0,1l0 0c0,1 0,1 -1,1 -1,1 -2,1 -4,1 0,0 -1,0 -1,0 0,0 0,0 -1,0 0,1 -1,1 -1,2 -1,1 -2,1 -3,1z"/>
      <path id="3" class="fil1" d="M245 59c-1,0 -1,0 -1,0 -1,-1 -2,-2 -2,-3 0,0 0,0 0,0 0,-1 0,-1 0,-1 0,0 0,0 0,0 0,0 0,0 -1,1 -2,2 -4,2 -5,2 0,0 0,0 0,0 -1,0 -2,0 -2,-1 0,-1 1,-2 3,-4 1,-1 2,-2 3,-2 2,-1 3,-1 4,-1 1,0 1,0 1,1 0,0 0,0 0,0 0,0 0,0 0,1 0,0 0,0 0,0 0,1 0,1 0,2 0,1 -1,2 -1,2 0,0 0,0 1,1 0,0 0,0 0,0 0,0 0,0 0,0 1,0 2,-1 5,-2 1,-1 2,-1 2,-1 1,0 1,0 1,1 0,0 0,1 -1,1 -3,2 -6,3 -7,3zm-8 -3c0,0 1,0 3,-2 2,-1 3,-2 3,-2 -1,0 -1,0 -3,1 -2,2 -3,3 -3,3 0,0 0,0 0,0z"/>
     </g>
    </g>
   </g>
  </g>
 </g>
</svg>
