<?xml version="1.0" encoding="UTF-8"?>
<!DOCTYPE svg PUBLIC "-//W3C//DTD SVG 1.1//EN" "http://www.w3.org/Graphics/SVG/1.1/DTD/svg11.dtd">
<!-- Creator: CorelDRAW X8 -->
<svg xmlns="http://www.w3.org/2000/svg" xml:space="preserve" width="136.77mm" height="42.1842mm" version="1.1" style="shape-rendering:geometricPrecision; text-rendering:geometricPrecision; image-rendering:optimizeQuality; fill-rule:evenodd; clip-rule:evenodd"
viewBox="0 0 7241 2233"
 xmlns:xlink="http://www.w3.org/1999/xlink">
 <defs>
  <style type="text/css">
   <![CDATA[
    .fil0 {fill:black}
    .fil1 {fill:black;fill-rule:nonzero}
   ]]>
  </style>
 </defs>
 <g id="Layer_x0020_1">
  <metadata id="CorelCorpID_0Corel-Layer"/>
  <g id="_2581842726560">
   <path class="fil0" d="M720 0c139,0 255,23 360,70 104,46 174,116 232,209 58,81 81,185 81,302 0,116 -23,220 -81,313 -58,81 -128,151 -232,197 -105,47 -221,70 -360,70l-221 0 0 383 -499 0 0 -1544 720 0 0 0zm-35 766c70,0 116,-23 151,-46 35,-35 58,-82 58,-139 0,-59 -23,-105 -58,-128 -35,-35 -81,-47 -151,-47l-186 0 0 360 186 0 0 0 0 0zm3274 -766l-337 1091c-70,0 -174,23 -174,116 0,47 35,81 81,81 12,0 23,0 35,-11l-23 104c-24,-11 -35,-23 -58,-23l-12 0 0 0c-35,12 -58,23 -81,58 -12,23 -24,58 -35,82 0,0 0,11 0,11 -23,0 -35,12 -46,12 -12,11 -24,11 -36,23l-11 0c0,-12 11,-35 11,-46 0,0 -11,-12 -11,-12 11,-12 11,-24 11,-35 0,-58 -46,-93 -104,-93 -46,0 -93,23 -128,47 -35,11 -58,34 -93,57 70,-115 140,-243 210,-359 23,-35 58,-81 81,-128 11,-35 34,-69 34,-104 0,-23 -11,-47 -34,-70l244 -801 476 0 0 0 0 0zm-1150 1068l-104 -348 -198 638c-34,47 -81,93 -116,128 47,-116 82,-244 128,-372 23,-69 47,-139 70,-208 11,-24 23,-70 23,-105 0,-46 -12,-93 -58,-104 -12,-12 -24,-12 -47,-12 -34,0 -58,12 -81,35 -35,23 -81,69 -104,116 -163,197 -302,429 -418,662l-465 -1498 511 0 267 871 279 -871 452 0 233 778 -12 0c-12,0 -35,0 -58,11 -23,12 -70,59 -93,82 -70,58 -139,128 -209,197l0 0zm-627 476l-104 0c70,-139 151,-267 232,-395 0,0 0,12 0,24 -46,115 -93,243 -128,371zm3088 -813c46,24 93,47 128,82 -12,0 -23,11 -46,11 -93,47 -210,105 -268,209l0 0 0 0c-11,23 -23,47 -23,58 0,58 47,93 93,93 35,0 70,-35 81,-70 12,-34 93,-81 128,-92 46,-23 104,-47 151,-59 23,47 23,93 23,151 0,140 -46,244 -162,314 -70,58 -174,93 -302,104 -23,-23 -70,-34 -105,-34l-23 0 -11 -12c0,-47 -24,-81 -70,-105 -12,-11 -35,-11 -47,-11 -34,0 -69,11 -104,23 0,0 -11,-12 -11,-23 -24,-23 -47,-23 -70,-23 -23,0 -47,0 -70,23l0 0 0 0c-11,23 -35,58 -46,93 -12,11 -12,23 -24,46 -11,0 -34,12 -46,12 -12,11 -23,11 -35,23l-12 0c0,-12 12,-35 12,-46 0,0 0,-12 -12,-12 12,-12 12,-23 12,-35 0,-58 -46,-93 -104,-93 -47,0 -93,23 -128,47 -35,23 -70,46 -105,69l0 -174c59,0 117,0 186,-23 58,-12 151,-46 151,-128 0,-11 0,-23 -12,-35 -11,-34 -46,-58 -81,-58 -35,0 -58,12 -81,47 -23,0 -70,11 -93,11 -11,0 -11,0 -11,0l0 -11 0 -12c-12,-23 -36,-46 -59,-58l0 -1033 790 0c209,0 360,35 452,105 105,81 151,174 151,301 0,70 -11,128 -46,186 -35,58 -93,105 -151,139l0 0 0 0zm-708 -371l0 232 244 0c104,0 162,-35 162,-116 0,-70 -58,-116 -162,-116l-244 0zm302 813c116,0 174,-35 174,-117 0,-81 -58,-116 -174,-116l-302 0 0 233 302 0zm1567 -1173c139,0 267,23 360,70 104,46 186,116 244,209 58,81 81,185 81,302 0,116 -23,220 -81,313 -58,81 -140,151 -244,197 -93,47 -221,70 -360,70l-209 0 0 337c-35,11 -58,23 -93,23 12,-12 12,-23 12,-47 35,-11 58,-35 58,-81l0 0 0 -12c0,-46 -35,-69 -81,-69 -47,0 -82,35 -82,81 -23,0 -34,12 -46,23 0,0 0,0 0,0 -23,0 -46,-11 -58,-11 -70,-12 -128,-24 -198,-24 47,-104 82,-232 82,-325 0,-104 -35,-185 -93,-232l0 -824 708 0 0 0 0 0zm-23 766c69,0 116,-23 151,-46 35,-35 46,-82 46,-139 0,-59 -11,-105 -46,-128 -35,-35 -82,-47 -151,-47l-186 0 0 360 186 0 0 0 0 0z"/>
   <g id="_2715521640400">
    <g>
     <g>
      <path class="fil1" d="M1771 2087c-6,0 -10,-1 -14,-2 -10,-3 -16,-10 -16,-22 0,-14 18,-67 53,-161 151,-394 344,-740 580,-1037 43,-54 74,-89 94,-105 19,-15 35,-23 47,-23 6,0 11,2 16,5 17,8 26,25 26,51 0,21 -7,53 -21,96 -12,40 -35,106 -68,200 -55,154 -118,335 -188,544 -25,74 -38,113 -38,117 4,0 39,-39 105,-118 77,-90 182,-201 314,-334 131,-133 267,-263 404,-390 41,-37 68,-59 82,-66 14,-7 25,-10 32,-10 9,0 16,3 22,9 10,8 14,17 14,28 0,15 -8,38 -25,70 -17,31 -43,75 -79,132 -127,206 -232,395 -316,567 -72,148 -116,242 -131,280 -32,94 -57,141 -74,141 -3,0 -5,-1 -9,-2 -10,-4 -16,-9 -16,-15 0,-5 -1,-8 -1,-10 0,-9 4,-22 10,-39 21,-65 57,-150 106,-257 60,-129 119,-245 177,-351 57,-105 126,-222 205,-349 37,-58 55,-89 55,-92l-1 0c0,0 -3,2 -7,6 -93,86 -201,189 -323,310 -155,152 -267,267 -334,344l-67 79c-81,95 -131,149 -150,162 -12,9 -22,13 -32,13 -25,0 -37,-14 -37,-44 0,-19 14,-69 41,-150 62,-192 117,-350 162,-477 71,-197 113,-321 126,-371 -247,278 -459,638 -636,1081 -44,108 -66,165 -66,171 0,2 -2,5 -6,9 -5,5 -10,8 -16,10z"/>
      <path id="1" class="fil1" d="M3204 1681c-15,0 -26,-3 -34,-8 -27,-13 -41,-35 -41,-64 0,-5 0,-11 1,-17 1,-6 1,-11 2,-15 0,-4 0,-6 0,-7 -2,0 -13,8 -33,24 -70,51 -119,77 -148,77 -4,0 -8,-1 -13,-2 -22,-8 -32,-22 -32,-41 0,-29 23,-64 69,-105 31,-27 63,-50 98,-71 39,-24 72,-36 98,-36 31,0 46,10 46,30 0,4 -1,10 -5,15 -2,6 -4,11 -4,15 3,12 4,19 4,22 0,12 -3,29 -9,50 -7,23 -11,41 -11,53 0,8 2,14 5,16 0,1 0,1 1,1 3,3 8,5 14,5 11,0 54,-16 129,-49 40,-17 64,-25 75,-25 17,0 26,8 26,24 0,12 -11,24 -31,35 -92,49 -161,73 -207,73zm-225 -72c11,0 38,-19 81,-56 53,-46 79,-70 79,-71 -8,0 -31,12 -66,38 -65,45 -98,73 -98,84 0,3 2,5 4,5z"/>
      <path id="2" class="fil1" d="M3683 1637c-57,0 -85,-32 -85,-96 0,-21 -1,-32 -3,-32 -5,0 -26,15 -66,46 -17,13 -32,26 -48,39 -34,28 -56,43 -65,43 -8,0 -15,-4 -21,-10 -8,-6 -12,-13 -12,-24 0,-13 11,-40 31,-82 21,-42 34,-68 39,-78 8,-15 18,-23 30,-23 18,0 26,8 26,26 0,5 -4,16 -12,34 -7,17 -12,26 -12,28 0,0 1,1 2,1 61,-45 101,-68 119,-68 6,0 12,2 19,6 11,5 20,14 25,25 5,12 8,29 9,53 1,28 3,43 5,47 2,3 7,5 15,5 16,0 44,-6 85,-17 33,-8 54,-12 61,-12 17,0 26,8 26,25 0,7 -3,13 -8,19 -12,10 -43,22 -94,35 -25,6 -47,10 -66,10z"/>
      <path id="3" class="fil1" d="M3857 1687c-41,0 -62,-20 -62,-61 0,-45 34,-138 102,-279l50 -107c0,-1 -6,-2 -17,-2 -11,0 -54,-5 -130,-15 -75,-10 -133,-15 -174,-15 -26,0 -45,2 -57,6 -12,4 -22,6 -30,6 -16,0 -24,-7 -24,-22 0,-32 44,-48 130,-48 41,0 122,7 243,20l95 9 17 -27c9,-17 17,-30 23,-39 6,-8 11,-14 15,-17 3,-3 8,-4 13,-4 12,0 21,7 27,20l0 3c0,10 -3,21 -9,34l-9 29c31,0 62,-2 92,-6 77,-11 121,-20 133,-28 5,-4 9,-10 12,-15 7,-10 15,-15 26,-15 12,0 22,8 29,22 2,5 3,10 3,14 0,29 -36,52 -108,69 -49,11 -107,18 -175,21l-60 3c-105,217 -157,341 -157,374 0,7 3,10 7,10 58,-7 122,-26 192,-57 31,-14 52,-20 60,-20 7,0 13,4 18,13 3,4 5,8 5,12 0,20 -35,43 -105,71 -71,27 -129,41 -175,41z"/>
      <path id="4" class="fil1" d="M4342 1681c-14,0 -26,-3 -34,-8 -27,-13 -40,-35 -40,-64 0,-5 0,-11 0,-17 1,-6 2,-11 2,-15 1,-4 1,-6 1,-7 -3,0 -14,8 -33,24 -70,51 -119,77 -148,77 -4,0 -9,-1 -14,-2 -21,-8 -32,-22 -32,-41 0,-29 23,-64 70,-105 30,-27 63,-50 97,-71 40,-24 72,-36 98,-36 31,0 47,10 47,30 0,4 -2,10 -5,15 -3,6 -4,11 -4,15 2,12 4,19 4,22 0,12 -3,29 -9,50 -8,23 -11,41 -11,53 0,8 1,14 4,16 0,1 1,1 1,1 4,3 8,5 15,5 11,0 54,-16 129,-49 39,-17 64,-25 74,-25 18,0 26,8 26,24 0,12 -10,24 -31,35 -91,49 -160,73 -207,73zm-224 -72c11,0 38,-19 81,-56 53,-46 79,-70 79,-71 -9,0 -31,12 -67,38 -65,45 -97,73 -97,84 0,3 1,5 4,5z"/>
      <path id="5" class="fil1" d="M4462 1825c-7,0 -14,-3 -20,-9 -7,-5 -10,-13 -10,-21 0,-20 47,-123 142,-312 22,-43 36,-69 43,-77 4,-5 10,-8 18,-8 10,0 17,3 21,9 4,6 7,10 7,15 0,6 -3,14 -7,24 -3,4 -7,12 -13,25 -7,12 -13,26 -21,40l-26 52 34 -33c77,-70 140,-105 189,-105 7,0 16,3 25,7 25,13 37,32 39,58l1 11c0,6 -6,24 -17,55l108 -3c38,0 58,10 58,31 0,18 -22,28 -66,30 -96,8 -148,14 -157,17 -6,2 -12,5 -19,9 -25,13 -46,19 -61,19 -15,0 -26,-6 -32,-18 -3,-6 -4,-11 -4,-17 0,-20 21,-36 63,-47 29,-8 50,-30 63,-68 3,-7 4,-12 4,-14 0,-4 -4,-6 -11,-6 -7,0 -18,3 -33,9 -38,17 -80,49 -127,97 -48,49 -93,105 -135,170 -13,19 -23,33 -30,42 -7,9 -12,14 -16,16 -4,1 -7,2 -10,2z"/>
     </g>
    </g>
    <g>
     <g>
      <path class="fil1" d="M4926 2233c-14,0 -27,-1 -40,-3 -67,-14 -109,-53 -126,-118 -4,-15 -6,-29 -6,-44 0,-12 2,-30 7,-51 6,-22 12,-41 19,-58 16,-34 40,-71 72,-112 33,-40 68,-77 104,-108 124,-106 307,-191 548,-258 47,-13 73,-21 78,-25 9,-10 27,-57 55,-140 40,-116 59,-205 59,-266 0,-30 -1,-51 -2,-62 -11,-56 -49,-86 -114,-89l-19 -1c-61,0 -135,22 -221,66 -88,42 -140,85 -156,127 -7,17 -15,26 -25,26 -17,0 -26,-9 -26,-25 0,-10 3,-23 9,-38 36,-64 117,-123 243,-176 69,-27 128,-41 180,-41 128,0 191,72 191,215 0,77 -33,205 -99,386 22,-2 44,-2 65,-2 70,0 135,8 197,24 80,20 123,34 128,41 6,7 9,14 9,21 0,17 -9,26 -25,26 -17,0 -58,-10 -124,-31 -43,-12 -93,-19 -148,-19 -41,0 -86,4 -133,11 -147,327 -308,544 -484,653 -79,48 -151,71 -216,71zm-7 -61c31,0 61,-5 90,-14 171,-54 332,-224 486,-513 37,-70 56,-108 56,-114 -7,0 -34,8 -80,22 -22,7 -43,14 -64,20 -21,7 -39,12 -52,17 -214,77 -369,177 -462,298 -52,68 -78,128 -78,181 0,54 24,88 72,100 9,2 20,3 32,3z"/>
      <path id="1" class="fil1" d="M5993 1680c-14,0 -25,-5 -33,-15 -8,-10 -12,-20 -12,-28 0,-18 13,-49 39,-95 26,-46 44,-74 54,-84 10,-11 18,-16 25,-16 5,0 10,2 14,5 7,6 10,12 10,19 0,9 -7,24 -21,45 -7,12 -20,34 -38,67 -14,25 -21,39 -21,43l82 -24c94,-29 157,-43 188,-43 12,0 19,2 21,6 6,7 10,13 10,20 0,10 -7,18 -19,24 -11,6 -38,13 -82,24 -75,20 -121,33 -136,38 -36,9 -63,14 -81,14zm128 -262c-16,0 -24,-8 -24,-25 0,-20 8,-29 24,-29 14,0 22,8 24,25 0,20 -8,29 -24,29z"/>
      <path id="2" class="fil1" d="M6460 1715c-43,0 -64,-28 -64,-84l0 -28c-52,43 -88,65 -106,66 -8,-1 -15,-4 -23,-11 -13,-9 -19,-21 -19,-36 0,-19 8,-44 23,-74 24,-46 45,-68 65,-68 17,0 27,9 27,26 0,9 -6,18 -16,29 -22,26 -32,44 -32,54l1 3c1,-1 19,-17 53,-47 40,-37 66,-55 79,-55 9,0 17,5 25,16 4,7 6,14 6,20 0,9 -4,25 -11,48 -6,21 -10,39 -12,56 0,14 3,21 11,21 14,0 38,-19 71,-56 19,-20 28,-34 28,-43 0,-10 5,-24 14,-44 19,-42 36,-62 51,-62 12,0 19,1 23,3 3,3 6,7 8,12 3,6 4,13 4,20 0,16 -9,43 -28,82 0,2 3,3 8,3 15,0 38,-4 71,-11 21,-5 37,-7 48,-7 14,0 20,7 20,22l0 5c0,13 -11,24 -35,33 -34,13 -68,20 -102,20 -16,0 -31,-3 -44,-9 -4,0 -11,7 -21,19 -11,13 -25,27 -45,44 -30,22 -55,33 -78,33z"/>
      <path id="3" class="fil1" d="M7003 1681c-15,0 -26,-3 -34,-8 -27,-13 -41,-35 -41,-64 0,-5 0,-11 1,-17 0,-6 1,-11 2,-15 0,-4 0,-6 0,-7 -2,0 -13,8 -33,24 -70,51 -119,77 -148,77 -4,0 -9,-1 -13,-2 -22,-8 -32,-22 -32,-41 0,-29 23,-64 69,-105 31,-27 63,-50 98,-71 39,-24 72,-36 98,-36 31,0 46,10 46,30 0,4 -1,10 -5,15 -2,6 -4,11 -4,15 3,12 4,19 4,22 0,12 -3,29 -9,50 -7,23 -11,41 -11,53 0,8 2,14 4,16 0,1 1,1 2,1 3,3 8,5 14,5 11,0 54,-16 129,-49 40,-17 64,-25 75,-25 17,0 26,8 26,24 0,12 -11,24 -31,35 -92,49 -161,73 -207,73zm-225 -72c11,0 38,-19 81,-56 53,-46 79,-70 79,-71 -9,0 -31,12 -66,38 -65,45 -98,73 -98,84 0,3 2,5 4,5z"/>
     </g>
    </g>
   </g>
  </g>
 </g>
</svg>
